<svg id="Capa_1" data-name="Capa 1" xmlns="http://www.w3.org/2000/svg" viewBox="0 0 568 609"><defs><style>.cls-1{fill:#d88c05;}.cls-2{fill:#feac00;}.cls-3{fill:#ea9c00;}.cls-4{fill:#ffb000;}.cls-5{fill:#d38802;}.cls-6{fill:none;}.cls-7,.cls-8{fill:#fff;}.cls-8{opacity:0.24;}.cls-9{fill:#fcfcfc;}</style></defs><title>likuid-angular</title><path class="cls-1" d="M473,135" transform="translate(0 -4)"/><path class="cls-2" d="M527.67,298.8l0,.34v0l0,0" transform="translate(0 -4)"/><polygon class="cls-3" points="284 24 284 585 58 460 23 110 284 24"/><polygon class="cls-4" points="284 24 284 585 511 460 546 117 284 24"/><path class="cls-5" d="M526,585" transform="translate(0 -4)"/><polygon class="cls-6" points="284.2 213.86 218.63 374.57 352.35 374.57 284.2 213.86"/><polygon class="cls-6" points="475.49 476.31 511.01 456.09 527.63 295.17 546 117.25 284.5 24.25 23 109.88 41.02 290.1 57.99 459.77 92.26 478.72 285.49 48 475.49 476.31"/><polygon class="cls-6" points="187.77 446.57 159.69 516 284.5 585 409.82 513.68 381.92 446.57 187.77 446.57"/><polygon class="cls-7" points="568 101 284 0 0 93 38 473 83.53 498.17 92.26 478.72 57.99 459.77 41.02 290.1 23 109.88 284.5 24.25 546 117.25 527.63 295.17 511.01 456.09 475.49 476.31 483.89 495.24 530 469 568 101"/><polygon class="cls-7" points="284.5 585 159.69 516 151.67 535.84 284 609 417.79 532.86 409.82 513.68 284.5 585"/><path class="cls-8" d="M187.77,450.57H381.92l27.9,67.11,65.67-37.37L285.49,52,92.26,482.72,159.69,520ZM284.2,217.86l68.15,160.71H218.63Z" transform="translate(0 -4)"/><polygon class="cls-7" points="92.26 478.72 83.53 498.17 151.67 535.84 159.69 516 92.26 478.72"/><polygon class="cls-8" points="92.26 478.72 83.53 498.17 151.67 535.84 159.69 516 92.26 478.72"/><polygon class="cls-7" points="409.82 513.68 417.79 532.86 483.89 495.24 475.49 476.31 409.82 513.68"/><polygon class="cls-8" points="409.82 513.68 417.79 532.86 483.89 495.24 475.49 476.31 409.82 513.68"/><polygon class="cls-9" points="284.89 48 320 125 218.63 374.57 430.09 374.35 461.9 446.25 187.77 446.57 106.68 446.57 284.89 48"/></svg>