<?xml version="1.0" encoding="utf-8"?>
<!-- Generator: Adobe Illustrator 22.1.0, SVG Export Plug-In . SVG Version: 6.00 Build 0)  -->
<svg version="1.1" id="Capa_1" xmlns="http://www.w3.org/2000/svg" xmlns:xlink="http://www.w3.org/1999/xlink" x="0px" y="0px"
	 viewBox="0 0 64 64" style="enable-background:new 0 0 64 64;" xml:space="preserve">
<style type="text/css">
	.st0{fill:#685000;}
</style>
<title>Puzzle</title>
<desc>A line styled icon from Orion Icon Library.</desc>
<path class="st0" d="M56,38c-1.7,0-3.4,0.7-4.5,2c-1.4,1.4-5.5,2-5.5-2V18H30c-4,0-3.4-4.1-2-5.5c2.5-2.2,2.7-6,0.5-8.5
	s-6-2.7-8.5-0.5s-2.7,6-0.5,8.5c0.1,0.2,0.3,0.3,0.5,0.5c1.4,1.4,2,5.5-2,5.5H2v8c0,4,4.1,3.4,5.5,2c1.1-1.3,2.8-2,4.5-2
	c3.3,0,6,2.7,6,6c0,3.3-2.7,6-6,6c-1.7,0-3.3-0.7-4.4-2C6.1,34.6,2,34,2,38v24h24c4,0,3.4-4.1,2-5.5c-1.3-1.1-2-2.8-2-4.5
	c0-3.3,2.7-6,6-6c3.3,0,6,2.7,6,6c0,1.7-0.7,3.3-2,4.4c-1.4,1.4-2,5.5,2,5.5h8V50c0-4,4.1-3.4,5.5-2c2.2,2.5,6,2.7,8.5,0.5
	s2.7-6,0.5-8.5C59.3,38.7,57.7,38,56,38z"/>
</svg>
