<?xml version="1.0" encoding="utf-8"?>
<!-- Generator: Adobe Illustrator 22.1.0, SVG Export Plug-In . SVG Version: 6.00 Build 0)  -->
<svg version="1.1" id="Capa_1" xmlns="http://www.w3.org/2000/svg" xmlns:xlink="http://www.w3.org/1999/xlink" x="0px" y="0px"
	 viewBox="0 0 32 32" style="enable-background:new 0 0 32 32;" xml:space="preserve">
<style type="text/css">
	.st0{fill:url(#SVGID_1_);}
	.st1{fill:url(#SVGID_2_);}
	.st2{fill:url(#SVGID_3_);}
</style>
<g id="icomoon-ignore">
</g>
<linearGradient id="SVGID_1_" gradientUnits="userSpaceOnUse" x1="13.0395" y1="18.8496" x2="19.0713" y2="12.8177">
	<stop  offset="5.008013e-04" style="stop-color:#7ED56F"/>
	<stop  offset="1" style="stop-color:#28B485"/>
</linearGradient>
<path class="st0" d="M16.1,11.6c-2.4,0-4.3,1.9-4.3,4.3c0,2.4,1.9,4.3,4.3,4.3s4.3-1.9,4.3-4.3C20.3,13.5,18.4,11.6,16.1,11.6z
	 M16.1,19c-1.8,0-3.2-1.4-3.2-3.2s1.4-3.2,3.2-3.2c1.8,0,3.2,1.4,3.2,3.2S17.8,19,16.1,19z"/>
<linearGradient id="SVGID_2_" gradientUnits="userSpaceOnUse" x1="10.0241" y1="21.8657" x2="22.0877" y2="9.8021">
	<stop  offset="5.008013e-04" style="stop-color:#7ED56F"/>
	<stop  offset="1" style="stop-color:#28B485"/>
</linearGradient>
<path class="st1" d="M16.1,7.3c-4.7,0-8.5,3.8-8.5,8.5s3.8,8.5,8.5,8.5s8.5-3.8,8.5-8.5C24.6,11.1,20.8,7.3,16.1,7.3z M16.1,23.3
	c-4.1,0-7.5-3.3-7.5-7.5s3.3-7.5,7.5-7.5s7.5,3.3,7.5,7.5S20.2,23.3,16.1,23.3z"/>
<linearGradient id="SVGID_3_" gradientUnits="userSpaceOnUse" x1="5.728" y1="28.514" x2="26.2515" y2="7.9906">
	<stop  offset="5.008013e-04" style="stop-color:#7ED56F"/>
	<stop  offset="1" style="stop-color:#28B485"/>
</linearGradient>
<path class="st2" d="M28.8,15.8C28.8,8.8,23.1,3,16,3S3.2,8.8,3.2,15.8c0,3.9,1.7,7.4,4.5,9.7l-2.2,2.7L6.3,29l2.2-2.7
	c2.1,1.5,4.7,2.4,7.5,2.4c2.8,0,5.3-0.9,7.4-2.4l2.2,2.7l0.8-0.7l-2.2-2.7C27,23.2,28.8,19.7,28.8,15.8z M4.3,15.8
	C4.3,9.4,9.5,4.1,16,4.1s11.7,5.3,11.7,11.7c0,6.5-5.3,11.7-11.7,11.7S4.3,22.3,4.3,15.8z"/>
</svg>
