<?xml version="1.0" encoding="utf-8"?>
<!-- Generator: Adobe Illustrator 22.1.0, SVG Export Plug-In . SVG Version: 6.00 Build 0)  -->
<svg version="1.1" id="Capa_1" xmlns="http://www.w3.org/2000/svg" xmlns:xlink="http://www.w3.org/1999/xlink" x="0px" y="0px"
	 viewBox="0 0 32 32" style="enable-background:new 0 0 32 32;" xml:space="preserve">
<style type="text/css">
	.st0{fill:url(#SVGID_1_);}
	.st1{fill:url(#SVGID_2_);}
</style>
<g id="icomoon-ignore">
</g>
<linearGradient id="SVGID_1_" gradientUnits="userSpaceOnUse" x1="6.9351" y1="27.1629" x2="25.0649" y2="9.0331">
	<stop  offset="0" style="stop-color:#7ED56F"/>
	<stop  offset="1" style="stop-color:#28B485"/>
</linearGradient>
<path class="st0" d="M18,5.5c0.4-0.5,0.7-1.1,0.7-1.8c0-1.5-1.2-2.7-2.7-2.7s-2.7,1.2-2.7,2.7c0,0.7,0.3,1.3,0.7,1.8
	c-6.1,1-10.8,6.3-10.8,12.6c0,7.1,5.7,12.8,12.8,12.8s12.8-5.7,12.8-12.8C28.8,11.7,24.1,6.4,18,5.5z M16,2.1c0.9,0,1.6,0.7,1.6,1.6
	S16.9,5.3,16,5.3s-1.6-0.7-1.6-1.6S15.1,2.1,16,2.1z M16,29.9c-6.5,0-11.7-5.3-11.7-11.7S9.5,6.4,16,6.4s11.7,5.3,11.7,11.7
	S22.5,29.9,16,29.9z"/>
<linearGradient id="SVGID_2_" gradientUnits="userSpaceOnUse" x1="9.5905" y1="24.5235" x2="22.375" y2="11.739">
	<stop  offset="0" style="stop-color:#7ED56F"/>
	<stop  offset="1" style="stop-color:#28B485"/>
</linearGradient>
<path class="st1" d="M9.6,24.5l8.7-4.1l4.1-8.7l-8.7,4.1L9.6,24.5L9.6,24.5z M14.2,17.1l2.7,2.7l-5.1,2.4L14.2,17.1L14.2,17.1z
	 M17.7,19.1L15,16.4l5.2-2.4L17.7,19.1L17.7,19.1z"/>
</svg>
