<?xml version="1.0" encoding="utf-8"?>
<!-- Generator: Adobe Illustrator 22.1.0, SVG Export Plug-In . SVG Version: 6.00 Build 0)  -->
<svg version="1.1" id="Capa_1" xmlns="http://www.w3.org/2000/svg" xmlns:xlink="http://www.w3.org/1999/xlink" x="0px" y="0px"
	 viewBox="0 0 32 32" style="enable-background:new 0 0 32 32;" xml:space="preserve">
<style type="text/css">
	.st0{fill:url(#SVGID_1_);}
	.st1{fill:url(#SVGID_2_);}
	.st2{fill:url(#SVGID_3_);}
</style>
<g id="icomoon-ignore">
</g>
<linearGradient id="SVGID_1_" gradientUnits="userSpaceOnUse" x1="5.7185" y1="28.9315" x2="26.3" y2="8.35">
	<stop  offset="0" style="stop-color:#7ED56F"/>
	<stop  offset="1" style="stop-color:#28B485"/>
</linearGradient>
<path class="st0" d="M27.2,10.1h-4.4l-2.6-2.6l0,0l0,0C19.8,7.2,19.3,7,18.7,7h-5.3c-0.6,0-1.2,0.3-1.6,0.7l0,0l-2.5,2.5H4.8
	c-1.2,0-2.1,1-2.1,2.1V25c0,1.2,1,2.1,2.1,2.1h22.4c1.2,0,2.1-1,2.1-2.1V12.2C29.3,11,28.4,10.1,27.2,10.1L27.2,10.1z M28.3,25
	c0,0.6-0.5,1.1-1.1,1.1H4.8c-0.6,0-1.1-0.5-1.1-1.1V12.2c0-0.6,0.5-1.1,1.1-1.1h4.9l1.6-1.6v0.1l1.2-1.3C12.7,8.1,13,8,13.3,8h5.3
	c0.3,0,0.5,0.1,0.8,0.3l2.9,2.9h4.9c0.6,0,1.1,0.5,1.1,1.1L28.3,25L28.3,25z"/>
<linearGradient id="SVGID_2_" gradientUnits="userSpaceOnUse" x1="11.1248" y1="21.9252" x2="20.8752" y2="12.1748">
	<stop  offset="0" style="stop-color:#7ED56F"/>
	<stop  offset="1" style="stop-color:#28B485"/>
</linearGradient>
<path class="st1" d="M16,10.1c-3.8,0-6.9,3.1-6.9,6.9s3.1,7,6.9,7s6.9-3.1,6.9-6.9S19.8,10.1,16,10.1z M16,22.9
	c-3.2,0-5.9-2.6-5.9-5.9s2.6-5.9,5.9-5.9s5.9,2.6,5.9,5.9S19.2,22.9,16,22.9z"/>
<linearGradient id="SVGID_3_" gradientUnits="userSpaceOnUse" x1="12.5875" y1="20.4125" x2="19.3938" y2="13.6062">
	<stop  offset="0" style="stop-color:#7ED56F"/>
	<stop  offset="1" style="stop-color:#28B485"/>
</linearGradient>
<path class="st2" d="M16,12.2c-2.7,0-4.8,2.1-4.8,4.8s2.1,4.8,4.8,4.8s4.8-2.1,4.8-4.8S18.6,12.2,16,12.2z M16,20.7
	c-2.1,0-3.7-1.7-3.7-3.7s1.7-3.7,3.7-3.7s3.7,1.7,3.7,3.7S18.1,20.7,16,20.7z"/>
</svg>
