<?xml version="1.0" encoding="utf-8"?>
<!-- Generator: Adobe Illustrator 22.1.0, SVG Export Plug-In . SVG Version: 6.00 Build 0)  -->
<svg version="1.1" id="Capa_1" xmlns="http://www.w3.org/2000/svg" xmlns:xlink="http://www.w3.org/1999/xlink" x="0px" y="0px"
	 viewBox="0 0 32 32" style="enable-background:new 0 0 32 32;" xml:space="preserve">
<style type="text/css">
	.st0{fill:url(#SVGID_1_);}
</style>
<g id="icomoon-ignore">
</g>
<linearGradient id="SVGID_1_" gradientUnits="userSpaceOnUse" x1="6.5762" y1="25.4236" x2="25.4239" y2="6.5759">
	<stop  offset="0" style="stop-color:#7ED56F"/>
	<stop  offset="1" style="stop-color:#28B485"/>
</linearGradient>
<path class="st0" d="M16,2.7C16,2.7,16,2.7,16,2.7C16,2.7,16,2.7,16,2.7C16,2.7,16,2.7,16,2.7C8.6,2.7,2.7,8.6,2.7,16
	c0,7.3,5.9,13.3,13.3,13.3c0,0,0,0,0,0c0,0,0,0,0,0c0,0,0,0,0,0c7.4,0,13.3-6,13.3-13.3S23.4,2.7,16,2.7z M16.5,10.6
	c1.4,0,2.8-0.2,4.1-0.5c0.4,1.6,0.6,3.4,0.7,5.4h-4.8C16.5,15.5,16.5,10.6,16.5,10.6z M16.5,9.6V3.8c1.4,0.4,2.9,2.3,3.8,5.3
	C19.1,9.4,17.8,9.5,16.5,9.6z M15.5,3.8v5.8c-1.3,0-2.6-0.2-3.9-0.5C12.6,6.1,14,4.2,15.5,3.8L15.5,3.8z M15.5,10.6v4.8h-4.8
	c0-2,0.3-3.8,0.7-5.4C12.7,10.4,14,10.6,15.5,10.6z M9.6,15.5H3.8c0.1-2.7,1.1-5.3,2.8-7.2C7.7,8.9,9,9.4,10.3,9.8
	C9.9,11.5,9.6,13.4,9.6,15.5z M9.6,16.5c0,2,0.3,4,0.7,5.7c-1.3,0.4-2.6,0.9-3.8,1.6c-1.6-2-2.7-4.5-2.8-7.2H9.6z M10.6,16.5h4.8
	v4.8c-1.4,0-2.8,0.2-4.1,0.6C10.9,20.3,10.7,18.5,10.6,16.5z M15.5,22.4v5.8c-1.4-0.4-2.9-2.3-3.9-5.3
	C12.9,22.6,14.1,22.4,15.5,22.4z M16.5,28.2v-5.8c1.3,0,2.6,0.2,3.8,0.5C19.4,25.9,18,27.8,16.5,28.2z M16.5,21.3v-4.8h4.8
	c0,2-0.3,3.8-0.7,5.4C19.3,21.6,17.9,21.4,16.5,21.3L16.5,21.3z M22.4,16.5h5.8c-0.1,2.7-1.1,5.3-2.8,7.2c-1.2-0.7-2.5-1.2-3.8-1.6
	C22.1,20.5,22.4,18.6,22.4,16.5L22.4,16.5z M22.4,15.5c0-2-0.3-3.9-0.7-5.6c1.3-0.4,2.6-0.9,3.8-1.6c1.6,2,2.7,4.5,2.8,7.2
	L22.4,15.5L22.4,15.5z M24.7,7.4c-1.1,0.6-2.2,1-3.4,1.4c-0.6-2-1.5-3.6-2.5-4.7C21.1,4.6,23.2,5.8,24.7,7.4z M13.1,4.1
	c-1,1.1-1.9,2.7-2.5,4.7C9.4,8.4,8.3,8,7.3,7.4C8.8,5.8,10.8,4.6,13.1,4.1z M7.3,24.6c1.1-0.6,2.2-1,3.3-1.4c0.6,2,1.5,3.6,2.5,4.7
	C10.8,27.4,8.8,26.2,7.3,24.6L7.3,24.6z M18.9,27.9c1-1.1,1.9-2.7,2.5-4.7c1.2,0.4,2.3,0.8,3.4,1.4C23.2,26.2,21.1,27.4,18.9,27.9z"
	/>
</svg>
