<?xml version="1.0" encoding="utf-8"?>
<!-- Generator: Adobe Illustrator 22.1.0, SVG Export Plug-In . SVG Version: 6.00 Build 0)  -->
<svg version="1.1" id="Capa_1" xmlns="http://www.w3.org/2000/svg" xmlns:xlink="http://www.w3.org/1999/xlink" x="0px" y="0px"
	 viewBox="0 0 32 32" style="enable-background:new 0 0 32 32;" xml:space="preserve">
<style type="text/css">
	.st0{fill:#FCFAFA;}
</style>
<g id="icomoon-ignore">
</g>
<path class="st0" d="M28.2,7.5H2.7v17.1h26.7V7.5C29.3,7.5,28.2,7.5,28.2,7.5z M27.2,8.5L16.9,18.8c-0.5,0.5-1.3,0.5-1.8,0L4.8,8.5
	L27.2,8.5L27.2,8.5z M3.7,9l6.9,6.9l-6.9,6.9L3.7,9L3.7,9z M4.6,23.5l6.8-6.8l3,3c0.4,0.4,1,0.7,1.6,0.7c0.6,0,1.2-0.2,1.6-0.7l3-3
	l6.8,6.8L4.6,23.5L4.6,23.5z M28.3,22.8l-6.9-6.9L28.3,9V22.8z"/>
</svg>
